<?xml version="1.0" encoding="UTF-8"?>
<svg id="Camada_1" xmlns="http://www.w3.org/2000/svg" version="1.1" viewBox="0 0 585.33 582.19">
  <!-- Generator: Adobe Illustrator 29.5.1, SVG Export Plug-In . SVG Version: 2.1.0 Build 141)  -->
  <defs>
    <style>
      .st0 {
        fill: #013333;
      }
    </style>
  </defs>
  <g>
    <polygon class="st0" points="291.86 315.7 283.25 393.03 283.25 427.55 304.32 427.55 291.86 315.7"/>
    <polygon class="st0" points="365.33 506.86 389.02 497.8 323.48 361.95 365.33 506.86"/>
    <polygon class="st0" points="283.25 485.28 283.25 570.3 317.8 570.3 291.89 442.78 283.25 485.28"/>
    <polygon class="st0" points="319.18 491.61 339.58 487.9 321 443.66 319.18 491.61"/>
    <polygon class="st0" points="432.1 274.9 320.25 287.36 432.1 299.82 432.1 274.9"/>
    <polygon class="st0" points="524.22 271.71 447.32 287.34 574.85 313.26 574.85 271.71 524.22 271.71"/>
    <polygon class="st0" points="382.2 395.31 399.82 377.69 311.92 307.41 382.2 395.31"/>
    <polygon class="st0" points="509.39 367.47 366.99 317.75 499.05 390.63 509.39 367.47"/>
    <polygon class="st0" points="473.65 505.75 510.3 469.1 401.79 397.25 473.65 505.75"/>
    <polygon class="st0" points="467.43 395.43 423.01 377.28 455.63 412.48 467.43 395.43"/>
  </g>
  <g>
    <polygon class="st0" points="263.53 287.32 186.19 278.7 151.68 278.7 151.68 299.77 263.53 287.32"/>
    <polygon class="st0" points="72.36 360.78 81.42 384.47 217.28 318.93 72.36 360.78"/>
    <polygon class="st0" points="93.94 278.7 8.92 278.7 8.92 313.25 136.45 287.34 93.94 278.7"/>
    <polygon class="st0" points="87.62 314.63 91.33 335.03 135.57 316.45 87.62 314.63"/>
    <polygon class="st0" points="304.32 427.55 291.86 315.7 279.4 427.55 304.32 427.55"/>
    <polygon class="st0" points="307.51 519.67 291.89 442.78 265.97 570.3 307.51 570.3 307.51 519.67"/>
    <polygon class="st0" points="183.92 377.65 201.54 395.27 271.82 307.37 183.92 377.65"/>
    <polygon class="st0" points="211.75 504.84 261.47 362.44 188.6 494.5 211.75 504.84"/>
    <polygon class="st0" points="73.48 469.1 110.13 505.75 181.98 397.24 73.48 469.1"/>
    <polygon class="st0" points="183.8 462.88 201.94 418.46 166.75 451.08 183.8 462.88"/>
  </g>
  <g>
    <polygon class="st0" points="291.91 258.98 300.53 181.64 300.53 147.13 279.45 147.13 291.91 258.98"/>
    <polygon class="st0" points="218.44 67.81 194.76 76.88 260.29 212.73 218.44 67.81"/>
    <polygon class="st0" points="300.53 89.39 300.53 4.37 265.98 4.37 291.89 131.9 300.53 89.39"/>
    <polygon class="st0" points="264.6 83.07 244.19 86.78 262.77 131.02 264.6 83.07"/>
    <polygon class="st0" points="151.68 299.78 263.53 287.32 151.68 274.85 151.68 299.78"/>
    <polygon class="st0" points="59.56 302.96 136.45 287.34 8.92 261.42 8.92 302.96 59.56 302.96"/>
    <polygon class="st0" points="201.58 179.37 183.96 196.99 271.85 267.27 201.58 179.37"/>
    <polygon class="st0" points="74.39 207.2 216.79 256.92 84.73 184.05 74.39 207.2"/>
    <polygon class="st0" points="110.13 68.93 73.48 105.58 181.98 177.43 110.13 68.93"/>
    <polygon class="st0" points="116.35 179.25 160.77 197.4 128.15 162.2 116.35 179.25"/>
  </g>
  <g>
    <polygon class="st0" points="320.25 287.36 397.58 295.98 432.1 295.98 432.1 274.9 320.25 287.36"/>
    <polygon class="st0" points="511.41 213.89 502.35 190.21 366.5 255.74 511.41 213.89"/>
    <polygon class="st0" points="489.83 295.98 574.85 295.98 574.85 261.43 447.32 287.34 489.83 295.98"/>
    <polygon class="st0" points="496.16 260.05 492.45 239.64 448.2 258.22 496.16 260.05"/>
    <polygon class="st0" points="279.45 147.13 291.91 258.98 304.37 147.13 279.45 147.13"/>
    <polygon class="st0" points="276.26 55.01 291.89 131.9 317.81 4.37 276.26 4.37 276.26 55.01"/>
    <polygon class="st0" points="399.86 197.03 382.24 179.41 311.96 267.3 399.86 197.03"/>
    <polygon class="st0" points="372.02 69.84 322.3 212.24 395.18 80.18 372.02 69.84"/>
    <polygon class="st0" points="510.3 105.58 473.65 68.93 401.8 177.43 510.3 105.58"/>
    <polygon class="st0" points="399.98 111.8 381.83 156.22 417.03 123.6 399.98 111.8"/>
  </g>
</svg>