<?xml version="1.0" encoding="UTF-8"?>
<svg id="Camada_1" xmlns="http://www.w3.org/2000/svg" version="1.1" viewBox="0 0 585.33 582.19">
  <!-- Generator: Adobe Illustrator 29.5.1, SVG Export Plug-In . SVG Version: 2.1.0 Build 141)  -->
  <defs>
    <style>
      .st0 {
        fill: #b6b3a1;
      }
    </style>
  </defs>
  <g>
    <polygon class="st0" points="292.86 487.63 326.69 569.32 343.16 562.5 292.86 441.05 292.86 487.63"/>
    <polygon class="st0" points="292.86 397.4 430.57 535.11 443.17 522.51 292.86 372.19 292.86 397.4"/>
    <rect class="st0" x="405.91" y="302.81" width="17.82" height="220.9" transform="translate(-125.73 638.35) rotate(-67.5)"/>
    <rect class="st0" x="341.82" y="348.3" width="220.9" height="17.82"/>
    <rect class="st0" x="354.97" y="282.19" width="220.9" height="17.83" transform="translate(-75.97 200.27) rotate(-22.5)"/>
    <polygon class="st0" points="424.06 240.6 367.87 296.78 380.47 309.38 449.26 240.6 424.06 240.6"/>
    <polygon class="st0" points="375.49 240.6 364.32 267.57 380.79 274.39 394.79 240.6 375.49 240.6"/>
    <rect class="st0" x="350.79" y="452.11" width="8.91" height="114.09" transform="translate(-192.55 216.99) rotate(-27.02)"/>
    <rect class="st0" x="429.48" y="411.56" width="8.91" height="114.1" transform="translate(-204.21 494.49) rotate(-49.52)"/>
    <rect class="st0" x="486.65" y="343.99" width="8.91" height="114.09" transform="translate(-41.92 744.39) rotate(-72.02)"/>
    <rect class="st0" x="461.03" y="312.27" width="114.09" height="8.91" transform="translate(-23.39 41.9) rotate(-4.53)"/>
    <polygon class="st0" points="477.21 240.6 457.88 250.46 461.93 258.4 496.82 240.6 477.21 240.6"/>
    <polygon class="st0" points="292.86 487.63 326.69 569.32 343.16 562.5 292.86 441.05 292.86 487.63"/>
    <polygon class="st0" points="292.86 397.4 430.57 535.11 443.17 522.51 292.86 372.19 292.86 397.4"/>
    <rect class="st0" x="405.91" y="302.81" width="17.82" height="220.9" transform="translate(-125.73 638.35) rotate(-67.5)"/>
    <rect class="st0" x="341.82" y="348.3" width="220.9" height="17.82"/>
    <rect class="st0" x="354.97" y="282.19" width="220.9" height="17.83" transform="translate(-75.97 200.27) rotate(-22.5)"/>
    <polygon class="st0" points="424.06 240.6 367.87 296.78 380.47 309.38 449.26 240.6 424.06 240.6"/>
    <polygon class="st0" points="375.49 240.6 364.32 267.57 380.79 274.39 394.79 240.6 375.49 240.6"/>
    <rect class="st0" x="350.79" y="452.11" width="8.91" height="114.09" transform="translate(-192.55 216.99) rotate(-27.02)"/>
    <rect class="st0" x="429.48" y="411.56" width="8.91" height="114.1" transform="translate(-204.21 494.49) rotate(-49.52)"/>
    <rect class="st0" x="486.65" y="343.99" width="8.91" height="114.09" transform="translate(-41.92 744.39) rotate(-72.02)"/>
    <rect class="st0" x="461.03" y="312.27" width="114.09" height="8.91" transform="translate(-23.39 41.9) rotate(-4.53)"/>
    <polygon class="st0" points="477.21 240.6 457.88 250.46 461.93 258.4 496.82 240.6 477.21 240.6"/>
  </g>
  <g>
    <polygon class="st0" points="96.14 291.28 14.45 325.12 21.27 341.59 142.71 291.28 96.14 291.28"/>
    <polygon class="st0" points="186.36 291.28 48.65 429 61.25 441.6 211.57 291.28 186.36 291.28"/>
    <rect class="st0" x="60.05" y="404.34" width="220.9" height="17.82" transform="translate(-276.54 412.63) rotate(-67.5)"/>
    <rect class="st0" x="217.64" y="340.25" width="17.82" height="220.9"/>
    <rect class="st0" x="283.75" y="353.4" width="17.83" height="220.9" transform="translate(-155.23 147.31) rotate(-22.5)"/>
    <polygon class="st0" points="343.17 422.48 286.98 366.3 274.38 378.9 343.17 447.69 343.17 422.48"/>
    <polygon class="st0" points="343.17 373.92 316.19 362.75 309.37 379.22 343.17 393.21 343.17 373.92"/>
    <rect class="st0" x="17.55" y="349.22" width="114.09" height="8.91" transform="translate(-152.54 72.5) rotate(-27.02)"/>
    <rect class="st0" x="58.11" y="427.9" width="114.1" height="8.91" transform="translate(-288.48 239.29) rotate(-49.52)"/>
    <rect class="st0" x="125.68" y="485.08" width="114.09" height="8.91" transform="translate(-339.31 512.26) rotate(-72.02)"/>
    <rect class="st0" x="262.59" y="459.45" width="8.91" height="114.09" transform="translate(-39.95 22.7) rotate(-4.53)"/>
    <polygon class="st0" points="343.17 475.64 333.31 456.31 325.37 460.35 343.17 495.25 343.17 475.64"/>
    <polygon class="st0" points="96.14 291.28 14.45 325.12 21.27 341.59 142.71 291.28 96.14 291.28"/>
    <polygon class="st0" points="186.36 291.28 48.65 429 61.25 441.6 211.57 291.28 186.36 291.28"/>
    <rect class="st0" x="60.05" y="404.34" width="220.9" height="17.82" transform="translate(-276.54 412.63) rotate(-67.5)"/>
    <rect class="st0" x="217.64" y="340.25" width="17.82" height="220.9"/>
    <rect class="st0" x="283.75" y="353.4" width="17.83" height="220.9" transform="translate(-155.23 147.31) rotate(-22.5)"/>
    <polygon class="st0" points="343.17 422.48 286.98 366.3 274.38 378.9 343.17 447.69 343.17 422.48"/>
    <polygon class="st0" points="343.17 373.92 316.19 362.75 309.37 379.22 343.17 393.21 343.17 373.92"/>
    <rect class="st0" x="17.55" y="349.22" width="114.09" height="8.91" transform="translate(-152.54 72.5) rotate(-27.02)"/>
    <rect class="st0" x="58.11" y="427.9" width="114.1" height="8.91" transform="translate(-288.48 239.29) rotate(-49.52)"/>
    <rect class="st0" x="125.68" y="485.08" width="114.09" height="8.91" transform="translate(-339.31 512.26) rotate(-72.02)"/>
    <rect class="st0" x="262.59" y="459.45" width="8.91" height="114.09" transform="translate(-39.95 22.7) rotate(-4.53)"/>
    <polygon class="st0" points="343.17 475.64 333.31 456.31 325.37 460.35 343.17 495.25 343.17 475.64"/>
  </g>
  <g>
    <polygon class="st0" points="292.47 94.56 258.63 12.87 242.17 19.69 292.47 141.13 292.47 94.56"/>
    <polygon class="st0" points="292.47 184.78 154.75 47.07 142.15 59.67 292.47 209.99 292.47 184.78"/>
    <rect class="st0" x="161.59" y="58.47" width="17.82" height="220.9" transform="translate(-50.81 261.8) rotate(-67.5)"/>
    <rect class="st0" x="22.6" y="216.06" width="220.9" height="17.82"/>
    <rect class="st0" x="9.45" y="282.17" width="220.9" height="17.83" transform="translate(-102.27 68.04) rotate(-22.5)"/>
    <polygon class="st0" points="161.27 341.59 217.46 285.4 204.85 272.8 136.06 341.59 161.27 341.59"/>
    <polygon class="st0" points="209.83 341.59 221.01 314.61 204.54 307.79 190.54 341.59 209.83 341.59"/>
    <rect class="st0" x="225.62" y="15.98" width="8.91" height="114.09" transform="translate(-8.06 112.5) rotate(-27.02)"/>
    <rect class="st0" x="146.94" y="56.53" width="8.91" height="114.1" transform="translate(-33.28 155.01) rotate(-49.52)"/>
    <rect class="st0" x="89.76" y="124.1" width="8.91" height="114.09" transform="translate(-107.17 214.86) rotate(-72.02)"/>
    <rect class="st0" x="10.2" y="261.01" width="114.09" height="8.91" transform="translate(-20.75 6.14) rotate(-4.53)"/>
    <polygon class="st0" points="108.12 341.59 127.45 331.73 123.4 323.79 88.5 341.59 108.12 341.59"/>
    <polygon class="st0" points="292.47 94.56 258.63 12.87 242.17 19.69 292.47 141.13 292.47 94.56"/>
    <polygon class="st0" points="292.47 184.78 154.75 47.07 142.15 59.67 292.47 209.99 292.47 184.78"/>
    <rect class="st0" x="161.59" y="58.47" width="17.82" height="220.9" transform="translate(-50.81 261.8) rotate(-67.5)"/>
    <rect class="st0" x="22.6" y="216.06" width="220.9" height="17.82"/>
    <rect class="st0" x="9.45" y="282.17" width="220.9" height="17.83" transform="translate(-102.27 68.04) rotate(-22.5)"/>
    <polygon class="st0" points="161.27 341.59 217.46 285.4 204.85 272.8 136.06 341.59 161.27 341.59"/>
    <polygon class="st0" points="209.83 341.59 221.01 314.61 204.54 307.79 190.54 341.59 209.83 341.59"/>
    <rect class="st0" x="225.62" y="15.98" width="8.91" height="114.09" transform="translate(-8.06 112.5) rotate(-27.02)"/>
    <rect class="st0" x="146.94" y="56.53" width="8.91" height="114.1" transform="translate(-33.28 155.01) rotate(-49.52)"/>
    <rect class="st0" x="89.76" y="124.1" width="8.91" height="114.09" transform="translate(-107.17 214.86) rotate(-72.02)"/>
    <rect class="st0" x="10.2" y="261.01" width="114.09" height="8.91" transform="translate(-20.75 6.14) rotate(-4.53)"/>
    <polygon class="st0" points="108.12 341.59 127.45 331.73 123.4 323.79 88.5 341.59 108.12 341.59"/>
  </g>
  <g>
    <polygon class="st0" points="489.19 290.9 570.87 257.07 564.05 240.6 442.61 290.9 489.19 290.9"/>
    <polygon class="st0" points="398.96 290.9 536.67 153.19 524.07 140.59 373.75 290.9 398.96 290.9"/>
    <rect class="st0" x="304.37" y="160.03" width="220.9" height="17.82" transform="translate(100 487.53) rotate(-67.5)"/>
    <rect class="st0" x="349.86" y="21.04" width="17.82" height="220.9"/>
    <rect class="st0" x="283.75" y="7.89" width="17.83" height="220.9" transform="translate(-23.01 121) rotate(-22.5)"/>
    <polygon class="st0" points="242.16 159.7 298.34 215.89 310.94 203.29 242.16 134.5 242.16 159.7"/>
    <polygon class="st0" points="242.16 208.27 269.13 219.44 275.95 202.97 242.16 188.97 242.16 208.27"/>
    <rect class="st0" x="453.67" y="224.05" width="114.09" height="8.91" transform="translate(-48.06 256.98) rotate(-27.02)"/>
    <rect class="st0" x="413.12" y="145.37" width="114.1" height="8.91" transform="translate(51 410.21) rotate(-49.52)"/>
    <rect class="st0" x="345.55" y="88.19" width="114.09" height="8.91" transform="translate(190.21 446.99) rotate(-72.02)"/>
    <rect class="st0" x="313.82" y="8.64" width="8.91" height="114.09" transform="translate(-4.19 25.34) rotate(-4.53)"/>
    <polygon class="st0" points="242.16 106.55 252.02 125.88 259.95 121.83 242.16 86.94 242.16 106.55"/>
    <polygon class="st0" points="489.19 290.9 570.87 257.07 564.05 240.6 442.61 290.9 489.19 290.9"/>
    <polygon class="st0" points="398.96 290.9 536.67 153.19 524.07 140.59 373.75 290.9 398.96 290.9"/>
    <rect class="st0" x="304.37" y="160.03" width="220.9" height="17.82" transform="translate(100 487.53) rotate(-67.5)"/>
    <rect class="st0" x="349.86" y="21.04" width="17.82" height="220.9"/>
    <rect class="st0" x="283.75" y="7.89" width="17.83" height="220.9" transform="translate(-23.01 121) rotate(-22.5)"/>
    <polygon class="st0" points="242.16 159.7 298.34 215.89 310.94 203.29 242.16 134.5 242.16 159.7"/>
    <polygon class="st0" points="242.16 208.27 269.13 219.44 275.95 202.97 242.16 188.97 242.16 208.27"/>
    <rect class="st0" x="453.67" y="224.05" width="114.09" height="8.91" transform="translate(-48.06 256.98) rotate(-27.02)"/>
    <rect class="st0" x="413.12" y="145.37" width="114.1" height="8.91" transform="translate(51 410.21) rotate(-49.52)"/>
    <rect class="st0" x="345.55" y="88.19" width="114.09" height="8.91" transform="translate(190.21 446.99) rotate(-72.02)"/>
    <rect class="st0" x="313.82" y="8.64" width="8.91" height="114.09" transform="translate(-4.19 25.34) rotate(-4.53)"/>
    <polygon class="st0" points="242.16 106.55 252.02 125.88 259.95 121.83 242.16 86.94 242.16 106.55"/>
  </g>
</svg>