<?xml version="1.0" encoding="UTF-8"?>
<svg id="Camada_1" xmlns="http://www.w3.org/2000/svg" version="1.1" viewBox="0 0 585.33 582.19">
  <!-- Generator: Adobe Illustrator 29.5.1, SVG Export Plug-In . SVG Version: 2.1.0 Build 141)  -->
  <defs>
    <style>
      .st0 {
        fill: #ea5b25;
      }
    </style>
  </defs>
  <g>
    <rect class="st0" x="302.73" y="413.52" width="34.85" height="34.85"/>
    <rect class="st0" x="260.94" y="520.79" width="35.85" height="57.83"/>
    <polygon class="st0" points="548.27 382.75 499.02 371.79 510.55 420.47 548.27 382.75"/>
    <rect class="st0" x="454.9" y="311.96" width="34.85" height="34.85"/>
    <rect class="st0" x="525.99" y="283.33" width="57.83" height="43.11"/>
    <path class="st0" d="M467.61,427.72v-31.84c0-.83-.67-1.5-1.5-1.5h-31.84c-.83,0-1.5.67-1.5,1.5v31.84c0,.83.67,1.5,1.5,1.5h31.84c.83,0,1.5-.67,1.5-1.5"/>
    <polygon class="st0" points="398.66 538.63 371.58 496.06 345.32 538.63 398.66 538.63"/>
    <rect class="st0" x="365.27" y="429.77" width="34.85" height="34.85" transform="translate(-204.13 401.59) rotate(-45)"/>
    <rect class="st0" x="399.18" y="344.69" width="34.85" height="34.85" transform="translate(-134.04 400.64) rotate(-45)"/>
    <rect class="st0" x="434.71" y="454.15" width="57.83" height="57.83" transform="translate(-205.78 469.32) rotate(-45)"/>
    <path class="st0" d="M309.83,513.4l22.52-22.52c.59-.59.59-1.54,0-2.12l-22.52-22.52c-.59-.59-1.54-.59-2.12,0l-22.52,22.52c-.59.59-.59,1.54,0,2.12l22.52,22.52c.59.59,1.54.59,2.12,0"/>
  </g>
  <g>
    <rect class="st0" x="131.76" y="297.53" width="34.85" height="34.85"/>
    <rect class="st0" x="1.5" y="255.75" width="57.83" height="35.85"/>
    <polygon class="st0" points="197.38 543.08 208.33 493.83 159.66 505.36 197.38 543.08"/>
    <rect class="st0" x="233.31" y="449.7" width="34.85" height="34.85"/>
    <rect class="st0" x="253.69" y="520.79" width="43.11" height="57.83"/>
    <path class="st0" d="M152.41,462.42h31.84c.83,0,1.5-.67,1.5-1.5v-31.84c0-.83-.67-1.5-1.5-1.5h-31.84c-.83,0-1.5.67-1.5,1.5v31.84c0,.83.67,1.5,1.5,1.5"/>
    <polygon class="st0" points="41.49 393.46 84.07 366.39 41.49 340.12 41.49 393.46"/>
    <rect class="st0" x="115.51" y="360.07" width="34.85" height="34.85" transform="translate(-228 204.56) rotate(-45)"/>
    <rect class="st0" x="200.59" y="393.98" width="34.85" height="34.85" transform="translate(-227.05 274.66) rotate(-45)"/>
    <rect class="st0" x="68.15" y="429.51" width="57.83" height="57.83" transform="translate(-295.72 202.91) rotate(-45)"/>
    <path class="st0" d="M66.73,304.63l22.52,22.52c.59.59,1.54.59,2.12,0l22.52-22.52c.59-.59.59-1.54,0-2.12l-22.52-22.52c-.59-.59-1.54-.59-2.12,0l-22.52,22.52c-.59.59-.59,1.54,0,2.12"/>
  </g>
  <g>
    <rect class="st0" x="247.75" y="133.82" width="34.85" height="34.85"/>
    <rect class="st0" x="288.53" y="3.56" width="35.85" height="57.83"/>
    <polygon class="st0" points="37.05 199.43 86.3 210.39 74.77 161.71 37.05 199.43"/>
    <rect class="st0" x="95.58" y="235.37" width="34.85" height="34.85"/>
    <rect class="st0" x="1.5" y="255.75" width="57.83" height="43.11"/>
    <path class="st0" d="M117.71,154.46v31.84c0,.83.67,1.5,1.5,1.5h31.84c.83,0,1.5-.67,1.5-1.5v-31.84c0-.83-.67-1.5-1.5-1.5h-31.84c-.83,0-1.5.67-1.5,1.5"/>
    <polygon class="st0" points="186.67 43.55 213.74 86.13 240.01 43.55 186.67 43.55"/>
    <rect class="st0" x="185.21" y="117.56" width="34.85" height="34.85" transform="translate(-36.1 182.82) rotate(-45)"/>
    <rect class="st0" x="151.3" y="202.65" width="34.85" height="34.85" transform="translate(-106.19 183.76) rotate(-45)"/>
    <rect class="st0" x="92.79" y="70.21" width="57.83" height="57.83" transform="translate(-34.45 115.09) rotate(-45)"/>
    <path class="st0" d="M275.5,68.79l-22.52,22.52c-.59.59-.59,1.54,0,2.12l22.52,22.52c.59.59,1.54.59,2.12,0l22.52-22.52c.59-.59.59-1.54,0-2.12l-22.52-22.52c-.59-.59-1.54-.59-2.12,0"/>
  </g>
  <g>
    <rect class="st0" x="418.71" y="249.8" width="34.85" height="34.85"/>
    <rect class="st0" x="525.99" y="290.59" width="57.83" height="35.85"/>
    <polygon class="st0" points="387.95 39.11 376.99 88.36 425.67 76.83 387.95 39.11"/>
    <rect class="st0" x="317.16" y="97.63" width="34.85" height="34.85"/>
    <rect class="st0" x="288.53" y="3.56" width="43.11" height="57.83"/>
    <path class="st0" d="M432.92,119.77h-31.84c-.83,0-1.5.67-1.5,1.5v31.84c0,.83.67,1.5,1.5,1.5h31.84c.83,0,1.5-.67,1.5-1.5v-31.84c0-.83-.67-1.5-1.5-1.5"/>
    <polygon class="st0" points="543.83 188.72 501.26 215.8 543.83 242.06 543.83 188.72"/>
    <rect class="st0" x="434.97" y="187.26" width="34.85" height="34.85" transform="translate(-12.23 379.84) rotate(-45)"/>
    <rect class="st0" x="349.89" y="153.36" width="34.85" height="34.85" transform="translate(-13.18 309.75) rotate(-45)"/>
    <rect class="st0" x="459.34" y="94.85" width="57.83" height="57.83" transform="translate(55.49 381.5) rotate(-45)"/>
    <path class="st0" d="M518.6,277.55l-22.52-22.52c-.59-.59-1.54-.59-2.12,0l-22.52,22.52c-.59.59-.59,1.54,0,2.12l22.52,22.52c.59.59,1.54.59,2.12,0l22.52-22.52c.59-.59.59-1.54,0-2.12"/>
  </g>
</svg>