<?xml version="1.0" encoding="UTF-8"?>
<svg id="Camada_1" xmlns="http://www.w3.org/2000/svg" version="1.1" viewBox="0 0 721.64 751.7">
  <!-- Generator: Adobe Illustrator 29.5.1, SVG Export Plug-In . SVG Version: 2.1.0 Build 141)  -->
  <defs>
    <style>
      .st0 {
        fill: #8bbf45;
      }
    </style>
  </defs>
  <g>
    <path class="st0" d="M359.67,273.12c-.35-5.28-4.92-9.28-10.2-8.92-5.28.35-9.27,4.92-8.92,10.2.35,5.28,4.92,9.28,10.2,8.92,5.28-.35,9.28-4.92,8.92-10.2"/>
    <path class="st0" d="M360.01,214.97c-.51-7.61-7.09-13.36-14.7-12.85-7.61.51-13.36,7.09-12.85,14.7.51,7.61,7.09,13.36,14.7,12.85,7.61-.51,13.36-7.09,12.85-14.7"/>
    <path class="st0" d="M356.14,157.11c-.51-7.61-7.09-13.36-14.7-12.85-7.61.51-13.36,7.09-12.85,14.7.51,7.61,7.09,13.36,14.7,12.85,7.61-.51,13.36-7.09,12.85-14.7"/>
    <path class="st0" d="M352.27,99.24c-.51-7.61-7.09-13.36-14.7-12.85-7.61.51-13.36,7.09-12.85,14.7.51,7.61,7.09,13.36,14.7,12.85,7.61-.51,13.36-7.09,12.85-14.7"/>
    <path class="st0" d="M348.4,41.38c-.51-7.61-7.09-13.36-14.7-12.85-7.61.51-13.36,7.09-12.85,14.7.51,7.61,7.09,13.36,14.7,12.85,7.61-.51,13.36-7.09,12.85-14.7"/>
    <path class="st0" d="M433.74,189.07c-2.03,14.16-15.16,23.99-29.32,21.96-14.16-2.03-23.99-15.16-21.96-29.32,2.03-14.16,15.16-23.99,29.32-21.96,14.16,2.03,23.99,15.16,21.96,29.32"/>
    <path class="st0" d="M437.84,125.23c-1.54,10.75-11.51,18.22-22.27,16.67-10.76-1.55-18.22-11.51-16.68-22.27,1.54-10.75,11.51-18.22,22.27-16.67,10.76,1.54,18.22,11.51,16.67,22.27"/>
    <path class="st0" d="M433.01,76.95c-.73,5.05-5.41,8.56-10.46,7.83-5.05-.73-8.55-5.41-7.83-10.46.73-5.05,5.41-8.56,10.46-7.83,5.05.73,8.56,5.41,7.83,10.46"/>
    <path class="st0" d="M353.88,478.64c.37,5.28,4.94,9.27,10.22,8.9,5.28-.37,9.27-4.94,8.9-10.22-.36-5.28-4.94-9.27-10.22-8.9-5.28.36-9.27,4.94-8.9,10.22"/>
    <path class="st0" d="M353.68,536.79c.53,7.61,7.12,13.34,14.73,12.82,7.61-.53,13.34-7.12,12.82-14.73-.53-7.61-7.12-13.34-14.73-12.82-7.61.53-13.34,7.12-12.82,14.73"/>
    <path class="st0" d="M357.7,594.64c.53,7.61,7.12,13.34,14.73,12.82,7.61-.53,13.34-7.12,12.82-14.73-.53-7.61-7.12-13.34-14.73-12.82-7.61.53-13.34,7.12-12.82,14.73"/>
    <path class="st0" d="M361.72,652.5c.53,7.61,7.12,13.34,14.73,12.82,7.61-.53,13.34-7.12,12.82-14.73-.53-7.61-7.12-13.34-14.73-12.82-7.61.53-13.34,7.12-12.82,14.73"/>
    <path class="st0" d="M365.74,710.36c.53,7.61,7.12,13.34,14.73,12.82,7.61-.53,13.34-7.12,12.82-14.73-.53-7.61-7.12-13.34-14.73-12.82-7.61.53-13.34,7.12-12.82,14.73"/>
    <path class="st0" d="M279.55,562.39c2.05-14.16,15.19-23.97,29.35-21.93,14.16,2.05,23.97,15.19,21.92,29.35-2.05,14.16-15.19,23.98-29.34,21.93-14.16-2.05-23.98-15.19-21.93-29.35"/>
    <path class="st0" d="M275.37,626.22c1.56-10.75,11.54-18.21,22.29-16.65,10.75,1.56,18.21,11.53,16.65,22.29-1.56,10.75-11.54,18.21-22.29,16.65-10.75-1.56-18.21-11.54-16.65-22.29"/>
    <path class="st0" d="M280.15,674.51c.73-5.05,5.42-8.55,10.46-7.82,5.05.73,8.55,5.42,7.82,10.47-.73,5.05-5.42,8.55-10.47,7.82-5.05-.73-8.55-5.41-7.82-10.46"/>
  </g>
  <g>
    <path class="st0" d="M263.92,337.81c-5.13-1.3-10.34,1.81-11.64,6.95-1.3,5.13,1.81,10.34,6.95,11.64,5.13,1.3,10.34-1.81,11.64-6.94,1.3-5.13-1.81-10.34-6.95-11.64"/>
    <path class="st0" d="M208.73,319.51c-7.39-1.87-14.9,2.61-16.77,10-1.87,7.39,2.61,14.9,10,16.77,7.39,1.87,14.9-2.61,16.77-10,1.87-7.39-2.61-14.9-10-16.77"/>
    <path class="st0" d="M152.5,305.31c-7.39-1.87-14.9,2.61-16.77,10-1.87,7.39,2.61,14.9,10,16.77,7.39,1.87,14.9-2.61,16.77-10,1.87-7.39-2.61-14.9-10-16.77"/>
    <path class="st0" d="M96.27,291.11c-7.39-1.87-14.9,2.61-16.77,10-1.87,7.39,2.61,14.9,10,16.77,7.39,1.87,14.9-2.61,16.77-10,1.87-7.39-2.61-14.9-10-16.77"/>
    <path class="st0" d="M40.04,276.91c-7.39-1.87-14.9,2.61-16.77,10-1.87,7.39,2.61,14.9,10,16.77,7.39,1.87,14.9-2.61,16.77-10,1.87-7.39-2.61-14.9-10-16.77"/>
    <path class="st0" d="M206.87,241.39c12.84,6.31,18.13,21.83,11.82,34.67-6.31,12.84-21.83,18.13-34.67,11.82-12.84-6.31-18.13-21.83-11.82-34.67,6.31-12.84,21.83-18.13,34.67-11.82"/>
    <path class="st0" d="M147.43,217.76c9.75,4.79,13.77,16.58,8.98,26.33-4.79,9.75-16.58,13.77-26.33,8.98-9.75-4.79-13.77-16.58-8.97-26.33,4.79-9.75,16.58-13.77,26.33-8.98"/>
    <path class="st0" d="M100.02,207.44c4.58,2.25,6.47,7.79,4.22,12.37-2.25,4.58-7.79,6.47-12.37,4.22-4.58-2.25-6.47-7.79-4.22-12.37,2.25-4.58,7.79-6.47,12.37-4.22"/>
    <path class="st0" d="M457.6,406.82c5.14,1.28,10.34-1.84,11.62-6.97,1.28-5.14-1.84-10.34-6.97-11.62-5.14-1.29-10.34,1.84-11.62,6.97-1.29,5.14,1.84,10.34,6.97,11.62"/>
    <path class="st0" d="M512.84,424.98c7.4,1.85,14.89-2.65,16.74-10.05,1.85-7.4-2.65-14.89-10.05-16.74-7.4-1.85-14.89,2.65-16.74,10.05-1.85,7.4,2.65,14.89,10.05,16.74"/>
    <path class="st0" d="M569.1,439.03c7.4,1.85,14.89-2.65,16.74-10.05,1.85-7.4-2.65-14.89-10.05-16.74-7.4-1.85-14.89,2.65-16.74,10.05-1.85,7.4,2.65,14.89,10.05,16.74"/>
    <path class="st0" d="M625.37,453.09c7.4,1.85,14.89-2.65,16.74-10.05,1.85-7.4-2.65-14.89-10.05-16.74-7.4-1.85-14.89,2.65-16.74,10.05-1.85,7.4,2.65,14.89,10.05,16.74"/>
    <path class="st0" d="M681.64,467.14c7.4,1.85,14.89-2.65,16.74-10.05,1.85-7.4-2.65-14.89-10.05-16.74-7.4-1.85-14.89,2.65-16.74,10.05-1.85,7.4,2.65,14.89,10.05,16.74"/>
    <path class="st0" d="M514.28,503.39c-12.83-6.33-18.11-21.85-11.78-34.69,6.32-12.83,21.85-18.1,34.68-11.78,12.83,6.33,18.11,21.85,11.78,34.68-6.33,12.83-21.85,18.11-34.69,11.78"/>
    <path class="st0" d="M573.7,527.09c-9.74-4.8-13.75-16.6-8.95-26.34,4.8-9.74,16.59-13.75,26.34-8.95,9.74,4.8,13.75,16.6,8.95,26.34-4.8,9.74-16.6,13.75-26.34,8.95"/>
    <path class="st0" d="M621.09,537.46c-4.58-2.26-6.46-7.8-4.2-12.37,2.26-4.58,7.79-6.46,12.37-4.2,4.58,2.26,6.46,7.8,4.2,12.37-2.25,4.57-7.79,6.46-12.37,4.2"/>
  </g>
  <g>
    <path class="st0" d="M295.86,448.85c-2.82,4.48-1.47,10.4,3.01,13.22,4.48,2.82,10.4,1.47,13.21-3.01,2.82-4.48,1.47-10.4-3.01-13.22-4.48-2.82-10.4-1.47-13.22,3.01"/>
    <path class="st0" d="M261.4,495.7c-4.06,6.46-2.12,14.98,4.33,19.04,6.45,4.06,14.98,2.12,19.04-4.33,4.06-6.45,2.12-14.98-4.33-19.04-6.45-4.06-14.98-2.12-19.04,4.33"/>
    <path class="st0" d="M230.52,544.78c-4.06,6.46-2.12,14.98,4.33,19.04,6.45,4.06,14.98,2.12,19.04-4.33,4.06-6.45,2.12-14.98-4.33-19.04-6.45-4.06-14.98-2.12-19.04,4.33"/>
    <path class="st0" d="M199.64,593.87c-4.06,6.46-2.12,14.98,4.33,19.04,6.45,4.06,14.98,2.12,19.04-4.33,4.06-6.45,2.12-14.98-4.33-19.04-6.45-4.06-14.98-2.12-19.04,4.33"/>
    <path class="st0" d="M168.75,642.96c-4.06,6.46-2.12,14.98,4.33,19.04,6.45,4.06,14.98,2.12,19.04-4.33,4.06-6.45,2.12-14.98-4.33-19.04-6.45-4.06-14.98-2.12-19.04,4.33"/>
    <path class="st0" d="M186.53,473.32c9.97-10.26,26.37-10.5,36.63-.53,10.26,9.97,10.5,26.37.53,36.63-9.97,10.26-26.37,10.5-36.63.53-10.26-9.97-10.5-26.37-.53-36.63"/>
    <path class="st0" d="M145.68,522.55c7.57-7.79,20.02-7.97,27.82-.4,7.79,7.57,7.97,20.02.4,27.82-7.57,7.79-20.02,7.97-27.82.4-7.79-7.57-7.97-20.02-.4-27.82"/>
    <path class="st0" d="M121.22,564.45c3.56-3.66,9.4-3.74,13.06-.19,3.66,3.56,3.74,9.4.19,13.06-3.56,3.66-9.4,3.74-13.06.19-3.66-3.56-3.74-9.41-.19-13.06"/>
    <path class="st0" d="M421.34,285.99c2.81-4.49,1.45-10.4-3.04-13.21-4.49-2.81-10.4-1.45-13.21,3.04-2.81,4.49-1.45,10.4,3.04,13.21,4.49,2.81,10.4,1.45,13.21-3.04"/>
    <path class="st0" d="M455.68,239.06c4.04-6.47,2.08-14.98-4.38-19.03-6.46-4.04-14.98-2.08-19.03,4.38-4.04,6.47-2.08,14.98,4.38,19.03,6.47,4.04,14.98,2.08,19.03-4.38"/>
    <path class="st0" d="M486.43,189.89c4.04-6.47,2.08-14.98-4.38-19.03-6.46-4.04-14.98-2.08-19.03,4.38-4.04,6.47-2.08,14.98,4.38,19.03,6.47,4.04,14.98,2.08,19.03-4.38"/>
    <path class="st0" d="M517.19,140.72c4.04-6.47,2.08-14.98-4.38-19.03-6.46-4.04-14.98-2.08-19.03,4.38-4.04,6.47-2.08,14.98,4.38,19.03,6.47,4.04,14.98,2.08,19.03-4.38"/>
    <path class="st0" d="M547.94,91.55c4.04-6.47,2.08-14.98-4.38-19.03-6.46-4.04-14.98-2.08-19.03,4.38-4.04,6.46-2.08,14.98,4.38,19.03,6.47,4.04,14.98,2.08,19.03-4.38"/>
    <path class="st0" d="M530.7,261.93c-9.98,10.25-26.38,10.47-36.63.49-10.25-9.98-10.46-26.38-.49-36.63,9.98-10.25,26.38-10.47,36.63-.49,10.25,9.98,10.47,26.38.49,36.63"/>
    <path class="st0" d="M571.6,212.74c-7.58,7.78-20.03,7.95-27.82.37-7.78-7.58-7.95-20.03-.37-27.82,7.58-7.78,20.03-7.95,27.82-.37,7.78,7.58,7.95,20.03.37,27.82"/>
    <path class="st0" d="M596.11,170.86c-3.56,3.66-9.41,3.73-13.06.17-3.66-3.56-3.74-9.41-.18-13.06,3.56-3.66,9.41-3.73,13.06-.17,3.65,3.56,3.73,9.41.17,13.06"/>
  </g>
  <g>
    <path class="st0" d="M411.34,452.8c3.39,4.07,9.43,4.61,13.5,1.22,4.06-3.39,4.61-9.43,1.22-13.5-3.39-4.07-9.43-4.62-13.5-1.22-4.07,3.39-4.61,9.43-1.22,13.5"/>
    <path class="st0" d="M445.24,500.04c4.88,5.86,13.59,6.65,19.44,1.76,5.85-4.88,6.65-13.59,1.76-19.44-4.88-5.85-13.59-6.65-19.44-1.76-5.85,4.88-6.65,13.59-1.76,19.44"/>
    <path class="st0" d="M482.38,544.58c4.88,5.86,13.59,6.65,19.44,1.76,5.85-4.88,6.65-13.59,1.76-19.44-4.88-5.85-13.59-6.65-19.44-1.76-5.85,4.88-6.65,13.59-1.76,19.44"/>
    <path class="st0" d="M519.52,589.12c4.88,5.86,13.59,6.65,19.44,1.76,5.85-4.88,6.65-13.59,1.76-19.44-4.88-5.85-13.59-6.65-19.44-1.76-5.85,4.88-6.65,13.59-1.76,19.44"/>
    <path class="st0" d="M556.67,633.66c4.88,5.86,13.59,6.65,19.44,1.76,5.85-4.88,6.65-13.59,1.76-19.44-4.88-5.85-13.59-6.65-19.44-1.76-5.85,4.88-6.65,13.59-1.76,19.44"/>
    <path class="st0" d="M400.82,564.33c-6.68-12.65-1.83-28.32,10.82-35,12.65-6.68,28.32-1.83,35,10.82,6.68,12.65,1.83,28.32-10.82,35-12.65,6.68-28.32,1.83-35-10.82"/>
    <path class="st0" d="M435.02,618.4c-5.07-9.61-1.39-21.51,8.21-26.58,9.61-5.07,21.51-1.39,26.58,8.22,5.07,9.61,1.39,21.51-8.22,26.58-9.61,5.07-21.51,1.39-26.58-8.21"/>
    <path class="st0" d="M467.31,654.61c-2.38-4.51-.65-10.1,3.86-12.48,4.51-2.38,10.1-.65,12.48,3.86,2.38,4.51.65,10.1-3.86,12.48-4.51,2.38-10.1.65-12.48-3.86"/>
    <path class="st0" d="M295.22,283.13c-3.4-4.06-9.45-4.59-13.5-1.19-4.06,3.4-4.59,9.45-1.19,13.5,3.4,4.06,9.45,4.59,13.5,1.19,4.06-3.4,4.59-9.45,1.19-13.5"/>
    <path class="st0" d="M261.2,235.97c-4.9-5.84-13.61-6.61-19.45-1.71-5.84,4.9-6.61,13.61-1.71,19.45,4.9,5.84,13.61,6.61,19.45,1.71,5.84-4.9,6.61-13.61,1.71-19.45"/>
    <path class="st0" d="M223.94,191.53c-4.9-5.84-13.61-6.61-19.45-1.71-5.84,4.9-6.61,13.61-1.71,19.45,4.9,5.84,13.61,6.61,19.45,1.71,5.84-4.9,6.61-13.61,1.71-19.45"/>
    <path class="st0" d="M186.68,147.08c-4.9-5.84-13.61-6.61-19.45-1.71-5.84,4.9-6.61,13.61-1.71,19.45,4.9,5.84,13.61,6.61,19.45,1.71,5.84-4.9,6.61-13.61,1.71-19.45"/>
    <path class="st0" d="M149.42,102.64c-4.9-5.84-13.61-6.61-19.45-1.71-5.84,4.9-6.61,13.61-1.71,19.45,4.9,5.84,13.61,6.61,19.45,1.71,5.84-4.9,6.61-13.61,1.71-19.45"/>
    <path class="st0" d="M306.13,171.68c6.66,12.66,1.8,28.32-10.86,34.99-12.66,6.66-28.32,1.8-34.98-10.86-6.66-12.66-1.81-28.32,10.85-34.99,12.66-6.66,28.32-1.81,34.99,10.86"/>
    <path class="st0" d="M271.99,117.58c5.06,9.61,1.37,21.51-8.25,26.57-9.61,5.06-21.51,1.37-26.57-8.24-5.06-9.61-1.37-21.51,8.24-26.57,9.61-5.06,21.51-1.37,26.57,8.25"/>
    <path class="st0" d="M239.74,81.33c2.38,4.51.64,10.1-3.87,12.48-4.51,2.38-10.1.65-12.48-3.87-2.38-4.51-.64-10.1,3.87-12.48,4.51-2.38,10.1-.64,12.48,3.87"/>
  </g>
  <g>
    <path class="st0" d="M450.77,344.19c4.91-1.97,7.3-7.55,5.33-12.46-1.97-4.91-7.55-7.3-12.46-5.33-4.91,1.97-7.3,7.55-5.34,12.46,1.97,4.91,7.55,7.3,12.46,5.33"/>
    <path class="st0" d="M506.18,326.55c7.08-2.84,10.52-10.87,7.68-17.95-2.83-7.08-10.87-10.52-17.95-7.68-7.08,2.83-10.52,10.87-7.68,17.95,2.83,7.08,10.87,10.52,17.95,7.68"/>
    <path class="st0" d="M560.02,304.99c7.08-2.84,10.52-10.87,7.68-17.95-2.83-7.08-10.87-10.52-17.95-7.68-7.08,2.83-10.52,10.87-7.68,17.95,2.83,7.08,10.87,10.52,17.95,7.68"/>
    <path class="st0" d="M613.86,283.43c7.08-2.84,10.52-10.87,7.68-17.95-2.83-7.08-10.87-10.52-17.95-7.68-7.08,2.83-10.52,10.87-7.68,17.95,2.83,7.08,10.87,10.52,17.95,7.68"/>
    <path class="st0" d="M667.7,261.87c7.08-2.84,10.52-10.87,7.68-17.95-2.83-7.08-10.87-10.52-17.95-7.68-7.08,2.83-10.52,10.87-7.68,17.95,2.83,7.08,10.87,10.52,17.95,7.68"/>
    <path class="st0" d="M553.6,388.66c-14.1,2.44-27.5-7.01-29.94-21.1-2.44-14.1,7.01-27.5,21.1-29.94,14.1-2.44,27.5,7.01,29.94,21.1,2.44,14.1-7.01,27.5-21.1,29.94"/>
    <path class="st0" d="M615.58,372.84c-10.7,1.85-20.89-5.32-22.74-16.02-1.85-10.71,5.32-20.89,16.03-22.74,10.7-1.85,20.89,5.32,22.74,16.03,1.86,10.71-5.32,20.89-16.02,22.74"/>
    <path class="st0" d="M660,353.32c-5.03.87-9.81-2.5-10.68-7.53-.87-5.03,2.5-9.81,7.53-10.68,5.03-.87,9.81,2.5,10.68,7.53.87,5.03-2.5,9.81-7.53,10.68"/>
    <path class="st0" d="M253.52,402.19c-4.91,1.98-7.28,7.57-5.3,12.47,1.98,4.91,7.57,7.28,12.47,5.3,4.91-1.98,7.28-7.57,5.3-12.47-1.98-4.91-7.57-7.28-12.47-5.3"/>
    <path class="st0" d="M198.16,419.98c-7.07,2.85-10.49,10.9-7.64,17.97,2.85,7.07,10.9,10.49,17.97,7.64,7.07-2.85,10.49-10.9,7.64-17.97-2.85-7.07-10.9-10.49-17.97-7.64"/>
    <path class="st0" d="M144.38,441.68c-7.07,2.85-10.49,10.9-7.64,17.97,2.85,7.07,10.9,10.49,17.97,7.64,7.07-2.85,10.49-10.9,7.64-17.97-2.85-7.07-10.9-10.49-17.97-7.64"/>
    <path class="st0" d="M90.6,463.38c-7.07,2.85-10.49,10.9-7.64,17.97,2.85,7.07,10.9,10.49,17.97,7.64,7.07-2.85,10.49-10.9,7.64-17.97-2.85-7.07-10.9-10.49-17.97-7.64"/>
    <path class="st0" d="M36.82,485.08c-7.07,2.85-10.49,10.9-7.64,17.97,2.85,7.07,10.9,10.49,17.97,7.64,7.07-2.85,10.49-10.9,7.64-17.97-2.85-7.07-10.9-10.49-17.97-7.64"/>
    <path class="st0" d="M150.91,357.38c14.1-2.43,27.49,7.04,29.92,21.14,2.43,14.1-7.04,27.49-21.14,29.92-14.1,2.43-27.5-7.04-29.92-21.13-2.43-14.1,7.04-27.5,21.14-29.92"/>
    <path class="st0" d="M88.9,373.13c10.71-1.84,20.88,5.35,22.72,16.05,1.84,10.7-5.34,20.88-16.05,22.72-10.71,1.84-20.88-5.35-22.72-16.05-1.84-10.71,5.35-20.88,16.05-22.72"/>
    <path class="st0" d="M44.46,392.6c5.03-.87,9.81,2.51,10.67,7.54.87,5.03-2.51,9.81-7.54,10.67-5.03.87-9.81-2.51-10.67-7.54-.87-5.03,2.51-9.8,7.54-10.67"/>
  </g>
</svg>