<?xml version="1.0" encoding="UTF-8"?>
<svg id="Camada_1" xmlns="http://www.w3.org/2000/svg" version="1.1" viewBox="0 0 555.84 264.94">
  <!-- Generator: Adobe Illustrator 29.5.1, SVG Export Plug-In . SVG Version: 2.1.0 Build 141)  -->
  <defs>
    <style>
      .st0 {
        fill: #f08eba;
      }

      .st1 {
        fill: #010101;
      }
    </style>
  </defs>
  <g>
    <path class="st0" d="M107.77,129.65c-5.65,5.92-12.44,8.9-18.92,7.47-12.61-2.77-19.3-21.09-14.94-40.93,4.35-19.84,18.1-33.68,30.71-30.91,9.05,1.99,15.05,11.99,16.11,24.81l21.34-1.79V27.06h-74.63v7.12l11.46.4,4.88,3.79v21.32l-4.68-1,.2-16.44-3.59-3.39h-21.72l-2.19,5.78-.75,28.49,3.24,5.08-8.37,2.79,2.09-44.33,4.38-2.49h10.76v-7.12H20.93v34.67c7.46-8.87,15.51-8.63,15.51-8.63l8.46,1.5v16.9l-3.16,4.56,1.58,7.5,7.72,1.4,6.29-6.47-1.4-6.25-2.28-1.03.54-14.96,38.74,6.85s-20.2,1.49-25.58,34.5c-4,24.51,11.32,38.23,11.32,38.23l-57.74-13.65v26h114.9l-28.07-18.54Z"/>
    <path class="st0" d="M117.42,113.58c-2.14,5.88-5.13,10.97-8.61,14.93l33.25,19.49v-27.28l-24.64-7.14Z"/>
    <path class="st0" d="M120.85,92.24c.17,4.43-.23,9.15-1.29,13.97-.49,2.23-1.11,4.39-1.82,6.46l1.02-1.3,23.3,5.99v-25.11h-21.22Z"/>
    <path class="st0" d="M106.36,66.98c-9.52-2.09-20.62,11.64-24.79,30.67-4.17,19.03.16,36.14,9.68,38.23,9.52,2.09,20.62-11.64,24.79-30.67,4.17-19.03-.16-36.14-9.68-38.23Z"/>
  </g>
  <g>
    <path class="st1" d="M176.95,148.77v-77.99h6.82l36.49,55.59,4.77,7.62.34-.11v-63.1h7.28v77.99h-7.16l-37.4-57.3-3.52-5.8h-.34v63.1h-7.28Z"/>
    <path class="st1" d="M282.45,149.91c-4.17,0-8.11-.61-11.82-1.82-3.71-1.21-6.95-3.26-9.72-6.14-2.77-2.88-4.93-6.78-6.48-11.71-1.55-4.93-2.33-11.1-2.33-18.53v-3.87c0-7.5.81-13.72,2.44-18.65,1.63-4.93,3.88-8.81,6.76-11.65,2.88-2.84,6.16-4.87,9.83-6.08,3.68-1.21,7.52-1.82,11.54-1.82h1.02c4.24,0,8.2.61,11.88,1.82,3.68,1.21,6.92,3.26,9.72,6.14,2.8,2.88,4.98,6.78,6.54,11.71,1.55,4.93,2.33,11.1,2.33,18.53v3.87c0,7.5-.83,13.72-2.5,18.65-1.67,4.93-3.92,8.81-6.76,11.65-2.84,2.84-6.1,4.87-9.78,6.08-3.68,1.21-7.56,1.82-11.65,1.82h-1.02ZM283.14,143.09c3.11,0,6.04-.44,8.81-1.31,2.77-.87,5.19-2.39,7.28-4.55,2.08-2.16,3.71-5.17,4.89-9.04,1.17-3.87,1.76-8.75,1.76-14.67v-7.5c0-5.91-.59-10.8-1.76-14.67-1.18-3.87-2.8-6.88-4.89-9.04-2.09-2.16-4.51-3.68-7.28-4.55-2.77-.87-5.7-1.31-8.81-1.31s-6.14.44-8.87,1.31c-2.73.87-5.14,2.39-7.22,4.55-2.09,2.16-3.71,5.17-4.89,9.04-1.18,3.87-1.76,8.75-1.76,14.67v7.5c0,5.91.59,10.8,1.76,14.67,1.17,3.87,2.8,6.88,4.89,9.04,2.08,2.16,4.49,3.68,7.22,4.55,2.73.87,5.69,1.31,8.87,1.31Z"/>
    <path class="st1" d="M358.17,149.91c-5.23,0-10.02-.72-14.38-2.16-4.36-1.44-7.83-3.81-10.4-7.11-2.58-3.3-3.87-7.79-3.87-13.47v-1.02c0-.38.04-.72.11-1.02h7.62c-.08.45-.11.91-.11,1.36v1.48c0,3.64.91,6.56,2.73,8.75,1.82,2.2,4.3,3.81,7.45,4.83,3.14,1.02,6.65,1.53,10.52,1.53s7.58-.47,10.69-1.42c3.11-.95,5.57-2.56,7.39-4.83,1.82-2.27,2.73-5.34,2.73-9.21,0-3.26-.85-5.87-2.56-7.84-1.71-1.97-3.96-3.52-6.76-4.66-2.8-1.14-5.89-2.12-9.27-2.96-3.37-.83-6.73-1.72-10.06-2.67-3.34-.95-6.41-2.18-9.21-3.69-2.8-1.52-5.06-3.56-6.76-6.14-1.71-2.58-2.56-5.87-2.56-9.89,0-4.62,1.23-8.41,3.7-11.37,2.46-2.96,5.72-5.15,9.78-6.59,4.05-1.44,8.43-2.16,13.13-2.16s9.38.7,13.36,2.1c3.98,1.4,7.16,3.62,9.55,6.65,2.39,3.03,3.58,7.05,3.58,12.05v1.48h-7.5v-2.27c0-2.96-.83-5.4-2.5-7.33-1.67-1.93-3.9-3.39-6.71-4.38-2.8-.98-5.99-1.48-9.55-1.48s-6.65.42-9.49,1.25c-2.84.83-5.1,2.2-6.76,4.09-1.67,1.9-2.5,4.4-2.5,7.5s.85,5.34,2.56,7.16c1.71,1.82,3.96,3.26,6.76,4.32,2.8,1.06,5.89,1.99,9.27,2.79,3.37.8,6.73,1.71,10.06,2.73,3.33,1.02,6.4,2.33,9.21,3.92,2.8,1.59,5.06,3.71,6.76,6.37,1.71,2.65,2.56,6.06,2.56,10.23,0,5.68-1.29,10.21-3.87,13.59-2.58,3.37-6.03,5.8-10.35,7.28s-9.1,2.22-14.33,2.22Z"/>
    <path class="st1" d="M429.8,149.91c-5.23,0-10.02-.72-14.38-2.16-4.36-1.44-7.83-3.81-10.4-7.11-2.58-3.3-3.87-7.79-3.87-13.47v-1.02c0-.38.04-.72.11-1.02h7.62c-.08.45-.11.91-.11,1.36v1.48c0,3.64.91,6.56,2.73,8.75,1.82,2.2,4.3,3.81,7.45,4.83,3.14,1.02,6.65,1.53,10.52,1.53s7.58-.47,10.69-1.42c3.11-.95,5.57-2.56,7.39-4.83,1.82-2.27,2.73-5.34,2.73-9.21,0-3.26-.85-5.87-2.56-7.84-1.71-1.97-3.96-3.52-6.76-4.66-2.8-1.14-5.89-2.12-9.27-2.96-3.37-.83-6.73-1.72-10.06-2.67-3.34-.95-6.41-2.18-9.21-3.69-2.8-1.52-5.06-3.56-6.76-6.14-1.71-2.58-2.56-5.87-2.56-9.89,0-4.62,1.23-8.41,3.7-11.37,2.46-2.96,5.72-5.15,9.78-6.59,4.05-1.44,8.43-2.16,13.13-2.16s9.38.7,13.36,2.1c3.98,1.4,7.16,3.62,9.55,6.65,2.39,3.03,3.58,7.05,3.58,12.05v1.48h-7.5v-2.27c0-2.96-.83-5.4-2.5-7.33-1.67-1.93-3.9-3.39-6.71-4.38-2.8-.98-5.99-1.48-9.55-1.48s-6.65.42-9.49,1.25c-2.84.83-5.1,2.2-6.76,4.09-1.67,1.9-2.5,4.4-2.5,7.5s.85,5.34,2.56,7.16c1.71,1.82,3.96,3.26,6.76,4.32,2.8,1.06,5.89,1.99,9.27,2.79,3.37.8,6.73,1.71,10.06,2.73,3.33,1.02,6.4,2.33,9.21,3.92,2.8,1.59,5.06,3.71,6.76,6.37,1.71,2.65,2.56,6.06,2.56,10.23,0,5.68-1.29,10.21-3.87,13.59-2.58,3.37-6.03,5.8-10.35,7.28-4.32,1.48-9.1,2.22-14.33,2.22Z"/>
    <path class="st1" d="M504.49,149.91c-4.17,0-8.11-.61-11.82-1.82-3.71-1.21-6.95-3.26-9.72-6.14-2.77-2.88-4.93-6.78-6.48-11.71-1.55-4.93-2.33-11.1-2.33-18.53v-3.87c0-7.5.81-13.72,2.44-18.65,1.63-4.93,3.88-8.81,6.76-11.65,2.88-2.84,6.16-4.87,9.83-6.08,3.68-1.21,7.52-1.82,11.54-1.82h1.02c4.24,0,8.2.61,11.88,1.82,3.68,1.21,6.92,3.26,9.72,6.14,2.8,2.88,4.98,6.78,6.54,11.71,1.55,4.93,2.33,11.1,2.33,18.53v3.87c0,7.5-.83,13.72-2.5,18.65-1.67,4.93-3.92,8.81-6.76,11.65-2.84,2.84-6.1,4.87-9.78,6.08-3.68,1.21-7.56,1.82-11.65,1.82h-1.02ZM505.17,143.09c3.11,0,6.04-.44,8.81-1.31,2.77-.87,5.19-2.39,7.28-4.55,2.08-2.16,3.71-5.17,4.89-9.04,1.17-3.87,1.76-8.75,1.76-14.67v-7.5c0-5.91-.59-10.8-1.76-14.67-1.18-3.87-2.8-6.88-4.89-9.04-2.09-2.16-4.51-3.68-7.28-4.55-2.77-.87-5.7-1.31-8.81-1.31s-6.14.44-8.87,1.31c-2.73.87-5.14,2.39-7.22,4.55-2.09,2.16-3.71,5.17-4.89,9.04-1.18,3.87-1.76,8.75-1.76,14.67v7.5c0,5.91.59,10.8,1.76,14.67,1.17,3.87,2.8,6.88,4.89,9.04,2.08,2.16,4.49,3.68,7.22,4.55,2.73.87,5.69,1.31,8.87,1.31Z"/>
    <path class="st1" d="M167.86,240.64l11.03-77.99h39.56c4.02,0,7.6.89,10.74,2.67,3.14,1.78,5.65,4.19,7.5,7.22,1.86,3.03,2.79,6.52,2.79,10.46,0,5.16-1.18,9.95-3.52,14.38-2.35,4.43-5.67,7.98-9.95,10.63-4.28,2.65-9.27,3.98-14.95,3.98h-17.74l-4.09,28.65h-21.37ZM195.48,196.19h12.85c2.12,0,3.88-.47,5.29-1.42,1.4-.95,2.46-2.22,3.18-3.81.72-1.59,1.08-3.33,1.08-5.23s-.59-3.43-1.76-4.83c-1.18-1.4-2.94-2.1-5.29-2.1h-12.85l-2.5,17.39Z"/>
    <path class="st1" d="M228.91,240.64l37.86-77.99h26.26l15.92,77.99h-22.4l-2.96-14.44h-27.17l-6.94,14.44h-20.58ZM263.81,210.97h16.83l-4.43-26.38h-.57l-11.82,26.38Z"/>
    <path class="st1" d="M315.77,240.64l11.03-77.99h21.6l-8.53,60.6h29.33v17.39h-53.43Z"/>
    <path class="st1" d="M408.54,241.78c-5.84,0-11.08-1.15-15.75-3.47-4.66-2.31-8.34-5.63-11.03-9.95-2.69-4.32-4.04-9.51-4.04-15.58,0-1.44.19-3.69.57-6.76.38-3.07.83-6.42,1.36-10.06.68-4.93,2.05-9.49,4.09-13.7,2.05-4.21,4.68-7.84,7.9-10.91,3.22-3.07,7.01-5.46,11.37-7.16,4.36-1.71,9.3-2.56,14.84-2.56h2.61c5.53,0,10.5.99,14.89,2.96,4.4,1.97,7.92,4.91,10.57,8.81,2.65,3.9,3.98,8.77,3.98,14.61,0,.99-.04,1.99-.11,3.01-.08,1.02-.19,2.07-.34,3.13h-20.24c.3-1.36.47-2.46.51-3.3.04-.83.09-1.59.17-2.27,0-2.35-.47-4.3-1.42-5.85-.95-1.55-2.31-2.73-4.09-3.52-1.78-.8-3.85-1.19-6.2-1.19-2.73,0-5.17.53-7.33,1.59-2.16,1.06-3.9,2.65-5.23,4.78-1.33,2.12-2.22,4.74-2.67,7.84-.61,4.17-1.1,7.56-1.48,10.18-.38,2.61-.66,4.68-.85,6.2-.19,1.52-.32,2.69-.4,3.52-.08.84-.11,1.52-.11,2.05,0,2.27.45,4.26,1.36,5.97.91,1.71,2.23,3.03,3.98,3.98,1.74.95,3.79,1.42,6.14,1.42,3.33,0,6.1-.55,8.3-1.65,2.2-1.1,3.96-2.84,5.29-5.23,1.33-2.39,2.29-5.51,2.9-9.38h19.33c-.99,6.82-3.07,12.66-6.25,17.51-3.18,4.85-7.31,8.57-12.39,11.14-5.08,2.58-10.91,3.87-17.51,3.87h-2.73Z"/>
    <path class="st1" d="M484.37,241.78c-5.61,0-10.61-1.23-15.01-3.7-4.4-2.46-7.86-5.89-10.4-10.29-2.54-4.39-3.81-9.4-3.81-15.01,0-1.44.19-3.69.57-6.76.38-3.07.83-6.42,1.36-10.06.68-4.93,2.1-9.49,4.26-13.7,2.16-4.21,4.93-7.84,8.3-10.91,3.37-3.07,7.26-5.46,11.65-7.16,4.4-1.71,9.21-2.56,14.44-2.56h5c5.61,0,10.61,1.25,15.01,3.75,4.39,2.5,7.86,5.93,10.4,10.29,2.54,4.36,3.81,9.34,3.81,14.95,0,1.52-.17,3.79-.51,6.82-.34,3.03-.82,6.37-1.42,10.01-.68,5-2.1,9.59-4.26,13.76-2.16,4.17-4.93,7.79-8.3,10.86-3.37,3.07-7.26,5.46-11.65,7.16-4.4,1.71-9.21,2.56-14.44,2.56h-5ZM489.48,225.52c2.05,0,3.94-.3,5.69-.91,1.74-.61,3.28-1.52,4.6-2.73,1.33-1.21,2.41-2.71,3.24-4.49.83-1.78,1.4-3.85,1.71-6.2.61-4.17,1.1-7.56,1.48-10.18.38-2.61.66-4.68.85-6.2.19-1.51.32-2.67.4-3.47.07-.8.11-1.5.11-2.1,0-2.35-.49-4.38-1.48-6.08-.99-1.71-2.37-2.99-4.15-3.87-1.78-.87-3.89-1.31-6.31-1.31-2.05,0-3.94.3-5.68.91-1.74.61-3.28,1.52-4.6,2.73-1.33,1.21-2.41,2.69-3.24,4.43-.83,1.74-1.4,3.79-1.71,6.14-.61,4.17-1.1,7.56-1.48,10.18-.38,2.61-.66,4.68-.85,6.2-.19,1.52-.32,2.69-.4,3.52-.08.84-.11,1.52-.11,2.05,0,2.35.49,4.38,1.48,6.08.98,1.71,2.37,3.01,4.15,3.92,1.78.91,3.88,1.36,6.31,1.36Z"/>
  </g>
  <g>
    <path class="st1" d="M177.4,43.92v-16.39h2.72l5.95,14.07h.05l6-14.07h2.72v16.39h-1.7v-14.45h-.12l-6.16,14.45h-1.72l-6.12-14.45h-.12v14.45h-1.51Z"/>
    <path class="st1" d="M255.48,44.16c-.88,0-1.7-.13-2.48-.38-.78-.25-1.46-.68-2.04-1.29-.58-.6-1.04-1.42-1.36-2.46-.33-1.03-.49-2.33-.49-3.89v-.81c0-1.58.17-2.88.51-3.92.34-1.03.82-1.85,1.42-2.45.6-.6,1.29-1.02,2.07-1.28.77-.25,1.58-.38,2.42-.38h.21c.89,0,1.72.13,2.5.38.77.25,1.45.68,2.04,1.29.59.61,1.05,1.43,1.37,2.46.33,1.04.49,2.33.49,3.89v.81c0,1.58-.18,2.88-.53,3.92-.35,1.04-.82,1.85-1.42,2.45-.6.6-1.28,1.02-2.05,1.28-.77.25-1.59.38-2.45.38h-.21ZM255.62,42.73c.65,0,1.27-.09,1.85-.27.58-.18,1.09-.5,1.53-.96.44-.45.78-1.09,1.03-1.9.25-.81.37-1.84.37-3.08v-1.58c0-1.24-.12-2.27-.37-3.08-.25-.81-.59-1.45-1.03-1.9-.44-.45-.95-.77-1.53-.96-.58-.18-1.2-.27-1.85-.27s-1.29.09-1.86.27c-.57.18-1.08.5-1.52.96-.44.45-.78,1.09-1.03,1.9-.25.81-.37,1.84-.37,3.08v1.58c0,1.24.12,2.27.37,3.08.25.81.59,1.45,1.03,1.9.44.45.94.77,1.52.96.57.18,1.19.27,1.86.27Z"/>
    <path class="st1" d="M321.55,44.16c-1.1,0-2.11-.15-3.02-.45s-1.64-.8-2.19-1.49c-.54-.69-.81-1.64-.81-2.83v-.21c0-.08,0-.15.02-.21h1.6c-.02.1-.02.19-.02.29v.31c0,.76.19,1.38.57,1.84.38.46.9.8,1.56,1.02.66.21,1.4.32,2.21.32s1.59-.1,2.24-.3c.65-.2,1.17-.54,1.55-1.02.38-.48.57-1.12.57-1.93,0-.68-.18-1.23-.54-1.65-.36-.41-.83-.74-1.42-.98-.59-.24-1.24-.45-1.95-.62-.71-.18-1.41-.36-2.11-.56-.7-.2-1.35-.46-1.93-.78s-1.06-.75-1.42-1.29c-.36-.54-.54-1.23-.54-2.08,0-.97.26-1.77.78-2.39.52-.62,1.2-1.08,2.05-1.39s1.77-.45,2.76-.45,1.97.15,2.81.44c.84.29,1.5.76,2.01,1.4.5.64.75,1.48.75,2.53v.31h-1.58v-.48c0-.62-.18-1.13-.53-1.54s-.82-.71-1.41-.92c-.59-.21-1.26-.31-2.01-.31s-1.4.09-1.99.26c-.6.18-1.07.46-1.42.86-.35.4-.53.92-.53,1.58s.18,1.12.54,1.5c.36.38.83.68,1.42.91.59.22,1.24.42,1.95.59.71.17,1.41.36,2.11.57.7.21,1.35.49,1.93.82.59.33,1.06.78,1.42,1.34s.54,1.27.54,2.15c0,1.19-.27,2.15-.81,2.85-.54.71-1.27,1.22-2.17,1.53-.91.31-1.91.47-3.01.47Z"/>
    <path class="st1" d="M385.32,43.92v-14.95h-5.37v-1.43h12.44v1.43h-5.37v14.95h-1.7Z"/>
    <path class="st1" d="M457.22,44.02c-.3,0-.61-.08-.92-.23-.31-.15-.57-.45-.79-.9s-.32-1.11-.32-1.98c0-.97-.11-1.74-.32-2.32-.21-.57-.49-1.01-.82-1.3-.33-.29-.67-.49-1-.59-.33-.1-.61-.14-.84-.14h-4.83v7.36h-1.7v-16.39h7.14c.78,0,1.5.16,2.15.49.65.33,1.18.78,1.58,1.37.4.59.6,1.3.6,2.13,0,.65-.13,1.26-.38,1.82-.25.56-.6,1.04-1.03,1.46-.43.41-.91.73-1.43.93v.12s.2.08.47.19c.26.11.55.31.87.61.32.29.6.73.84,1.3.24.57.36,1.33.36,2.27,0,.67.04,1.2.11,1.6.07.4.16.69.26.88.1.19.23.33.38.42.15.09.31.17.47.25v.5s-.15.04-.3.08c-.15.04-.33.06-.54.06ZM447.38,35.13h5.11c.56,0,1.06-.16,1.5-.49.45-.33.8-.76,1.07-1.29.27-.53.41-1.09.41-1.68,0-.88-.28-1.54-.84-2.01-.56-.46-1.27-.69-2.15-.69h-5.11v6.16Z"/>
    <path class="st1" d="M509.79,43.92l6.64-16.39h1.74l6.64,16.39h-1.84l-1.6-3.94h-8.26l-1.6,3.94h-1.72ZM513.66,38.57h7.14l-3.51-8.91h-.1l-3.54,8.91Z"/>
  </g>
</svg>